<svg width="436" height="251" viewBox="0 0 436 251" fill="none" xmlns="http://www.w3.org/2000/svg">
<g clip-path="url(#clip0_311_63451)">
<path d="M432.94 154.135C432.94 154.135 430.534 90.7327 357.424 87.6112C274.689 84.0735 279.834 155.938 279.834 155.938C279.834 155.938 302.738 146.366 351.366 147.545C407.049 148.724 432.94 154.135 432.94 154.135Z" fill="white"/>
<path d="M417.339 29.5506C413.605 16.3014 394.767 28.9956 362.154 21.2958C335.018 14.8446 326.139 -2.15043 317.011 3.74582C307.882 9.64207 320.579 28.9956 359.582 40.0251C388.626 48.2798 421.654 45.0196 417.339 29.5506Z" fill="#231F20"/>
<path d="M20.2586 33.9207C22.5822 20.4634 42.7474 31.7703 74.3644 21.6426C100.753 13.2492 107.807 -4.30085 117.516 0.901722C127.226 6.17366 116.521 26.3596 78.8456 40.1638C50.7969 50.4996 17.5201 49.5978 20.2586 33.9207Z" fill="#231F20"/>
<path d="M3.08081 151.776C3.08081 151.776 6.56616 88.3743 79.5924 86.0851C162.328 83.4492 156.104 155.245 156.104 155.245C156.104 155.245 133.366 145.464 84.7374 146.019C29.0549 146.643 3.08081 151.776 3.08081 151.776Z" fill="white"/>
<path d="M361.822 87.0563C403.314 99.6812 405.555 139.568 405.389 149.903C422.899 152.609 431.28 156.216 431.28 156.216C431.28 156.216 437.172 88.5824 361.822 87.0563Z" fill="#EFEFEF"/>
<path d="M86.5632 86.0159C128.055 98.6408 130.296 138.527 130.13 148.863C147.64 151.568 156.021 155.175 156.021 155.175C156.021 155.175 161.996 87.542 86.5632 86.0159Z" fill="#EFEFEF"/>
<path d="M119.674 139.914C119.674 121.393 101.749 106.41 79.5924 106.41C57.4356 106.41 39.511 121.393 39.511 139.914C39.511 142.62 39.9259 145.325 40.6728 147.822C52.4566 147.059 67.0618 146.366 84.7375 146.158C97.932 146.019 109.135 146.643 118.595 147.545C119.342 145.186 119.674 142.62 119.674 139.914Z" fill="#231F20"/>
<path d="M70.4641 137.972C77.6138 137.972 83.4097 133.127 83.4097 127.151C83.4097 121.174 77.6138 116.329 70.4641 116.329C63.3145 116.329 57.5186 121.174 57.5186 127.151C57.5186 133.127 63.3145 137.972 70.4641 137.972Z" fill="white"/>
<path d="M316.513 141.024C316.845 122.503 335.018 107.728 357.092 108.005C379.249 108.283 396.925 123.474 396.593 141.926C396.51 144.631 396.095 147.337 395.348 149.834C383.564 148.932 368.959 148.1 351.366 147.684C338.172 147.406 326.969 147.892 317.509 148.724C316.845 146.227 316.513 143.66 316.513 141.024Z" fill="#231F20"/>
<path d="M378.871 128.915C378.966 122.939 373.248 118.03 366.099 117.951C358.95 117.871 353.078 122.651 352.983 128.627C352.888 134.603 358.606 139.512 365.755 139.591C372.904 139.671 378.776 134.891 378.871 128.915Z" fill="white"/>
<path d="M349.541 238.208C348.213 238.208 346.885 237.653 346.138 236.682C346.055 236.613 337.923 226.763 320.081 217.121C303.733 208.242 275.519 197.698 234.358 197.698C234.192 197.698 234.026 197.698 233.86 197.698C170.875 197.836 123.989 235.85 123.491 236.266C121.831 237.584 119.259 237.584 117.599 236.266C116.023 234.879 116.023 232.728 117.599 231.341C118.097 230.925 130.13 221.075 150.461 211.086C169.299 201.86 199.007 190.83 233.777 190.761C233.943 190.761 234.109 190.761 234.358 190.761C277.842 190.761 307.634 202.068 324.977 211.502C344.064 221.907 352.611 232.381 353.026 232.798C354.271 234.393 353.856 236.543 351.947 237.584C351.117 238 350.288 238.208 349.541 238.208Z" fill="#231F20"/>
<path d="M106.148 219.826C99.5918 228.636 98.4301 240.012 103.16 249.585C103.575 250.417 104.571 251.041 105.733 250.764C106.729 250.556 107.641 249.515 107.143 248.613C102.828 239.804 103.741 229.607 109.716 221.56C111.127 219.687 107.558 217.884 106.148 219.826Z" fill="#231F20"/>
<path d="M354.271 222.531C362.154 228.913 365.142 238.971 361.905 247.712C361.076 249.862 365.142 250.764 365.889 248.614C369.623 238.694 366.138 227.318 357.175 220.034C355.267 218.508 352.279 221.005 354.271 222.531Z" fill="#231F20"/>
<path d="M141.831 136.654C140.752 135.822 139.673 135.059 138.345 134.643C136.271 134.018 134.03 134.434 131.873 134.157C127.06 133.394 124.238 129.232 120.006 127.081C113.865 123.96 105.484 125.833 100.422 130.134C97.3512 132.77 94.5297 136.515 90.1315 136.585C88.0569 136.654 86.0653 135.822 83.9907 135.544C78.6797 134.781 73.7006 137.556 68.4726 138.596C63.4935 139.637 58.0166 139.082 53.4524 137.14C47.8925 134.712 42.5815 130.203 36.6066 131.66C30.8807 133.116 28.7231 139.36 23.0801 141.024C19.0969 142.273 14.2838 140.747 10.4665 142.273C6.56624 143.868 5.1555 147.822 4.24268 151.429L79.6755 146.158L153.2 152.886C153.283 146.366 147.474 141.024 141.831 136.654Z" fill="#7ECDEC"/>
<path d="M156.104 157.742C155.606 157.742 155.108 157.673 154.693 157.464C154.444 157.395 131.873 147.961 84.8205 148.516C30.2168 149.14 4.07671 154.135 3.74477 154.204C2.83194 154.412 1.83613 154.204 1.08927 153.649C0.342409 153.164 -0.0725132 152.331 0.0104712 151.568C0.0104712 150.875 1.00628 134.989 11.2134 118.549C20.6736 103.219 40.2579 84.6978 79.5095 83.4492C104.239 82.6861 123.823 88.3049 137.516 100.236C161.83 121.255 159.258 153.996 159.175 155.383C159.092 156.216 158.511 156.979 157.598 157.464C157.183 157.673 156.602 157.742 156.104 157.742ZM88.8867 143.383C123.74 143.383 144.652 148.655 153.117 151.36C153.034 142.481 150.959 119.243 133.034 103.774C120.504 92.9525 102.579 87.8887 79.6755 88.5824C50.548 89.4842 29.304 100.375 16.6073 120.908C9.71965 132.076 7.3131 143.175 6.48325 148.516C15.8605 147.059 41.1707 143.868 84.6545 143.383C86.1483 143.383 87.559 143.383 88.8867 143.383Z" fill="#231F20"/>
<path d="M296.763 139.359C302.406 138.735 307.966 141.371 313.608 140.747C318.754 140.123 322.82 136.932 327.467 134.92C332.695 132.631 338.836 131.798 344.645 132.631C352.86 133.81 360.578 138.111 368.876 137.14C376.262 136.238 381.822 131.313 388.46 128.608C397.174 125.07 408.045 125.486 416.343 129.717C424.642 133.949 430.036 141.857 430.119 149.973C430.119 150.597 430.119 151.221 429.621 151.707C429.04 152.331 427.961 152.401 427.048 152.401C423.646 152.401 420.326 151.915 416.924 151.429C387.962 147.545 358.42 147.059 329.044 147.961C321.243 148.169 313.36 148.516 305.559 149.557C297.593 150.597 290.29 153.857 282.655 155.037C281.659 148.585 289.128 140.192 296.763 139.359Z" fill="#7ECDEC"/>
<path d="M279.917 158.436C279.419 158.436 278.838 158.297 278.34 158.089C277.427 157.673 276.846 156.91 276.846 156.008C276.763 154.62 274.772 121.879 299.335 101.138C313.276 89.4149 332.861 83.9348 357.673 85.0447C396.842 86.7095 416.094 105.439 425.388 120.908C435.346 137.487 436.01 153.372 436.093 154.065C436.093 154.898 435.678 155.661 434.932 156.147C434.185 156.632 433.189 156.84 432.276 156.632C432.027 156.563 405.887 151.291 351.366 150.042C304.314 148.932 281.576 158.089 281.327 158.228C280.83 158.366 280.332 158.436 279.917 158.436ZM351.698 89.9698C331.45 89.9698 315.268 94.8949 303.65 104.676C285.56 119.937 283.07 143.105 282.821 152.054C291.7 149.348 314.023 144.007 351.366 144.909C394.85 145.88 420.16 149.348 429.455 150.875C428.708 145.464 426.467 134.226 419.662 122.989C407.215 102.387 386.22 91.3572 357.175 90.1085C355.432 90.0392 353.524 89.9698 351.698 89.9698Z" fill="#231F20"/>
</g>
<defs>
<clipPath id="clip0_311_63451">
<rect width="436" height="250.833" fill="white"/>
</clipPath>
</defs>
</svg>
