<svg width="113" height="113" viewBox="0 0 113 113" fill="none" xmlns="http://www.w3.org/2000/svg">
<path d="M68.4398 101.06C93.0497 94.466 107.654 69.1701 101.06 44.5602C94.4659 19.9503 69.17 5.34571 44.5601 11.9399C19.9502 18.5341 5.34565 43.83 11.9399 68.4399C18.534 93.0498 43.83 107.654 68.4398 101.06Z" fill="#FCDDEC"/>
<path d="M44.7971 62.199L45.8896 66.276L42.1344 67.2822L42.9537 70.34L38.1257 71.6336L37.3063 68.5759L24.056 72.1263L22.9635 68.0492L33.0947 52.8578L37.9228 51.5641L41.042 63.2051L44.7971 62.199ZM28.1671 66.6549L36.2139 64.4988L34.3884 57.6859L28.1671 66.6549ZM59.0387 66.3175C51.582 68.3155 47.1215 65.8309 45.4469 59.5813C43.7795 53.3584 46.4073 49.0032 53.864 47.0052C61.2939 45.0144 65.7812 47.4918 67.4414 53.6878C69.1088 59.9107 66.4686 64.3267 59.0387 66.3175ZM57.9534 62.2673C62.1914 61.1317 63.5549 58.4953 62.6134 54.9815C61.679 51.4946 59.1872 49.9199 54.9492 51.0554C50.7113 52.191 49.3335 54.7738 50.275 58.2876C51.2237 61.8282 53.7155 63.4028 57.9534 62.2673ZM91.4685 49.6934L92.5609 53.7705L88.8057 54.7766L89.6251 57.8344L84.797 59.1281L83.9777 56.0703L70.7273 59.6207L69.6349 55.5437L79.766 40.3523L84.5941 39.0586L87.7133 50.6996L91.4685 49.6934ZM74.8384 54.1494L82.8852 51.9933L81.0597 45.1803L74.8384 54.1494Z" fill="white"/>
</svg>
