<svg width="113" height="113" viewBox="0 0 113 113" fill="none" xmlns="http://www.w3.org/2000/svg">
<path d="M68.4398 101.06C93.0497 94.466 107.654 69.1701 101.06 44.5602C94.4659 19.9503 69.17 5.34571 44.5601 11.9399C19.9502 18.5341 5.34565 43.83 11.9399 68.4399C18.534 93.0498 43.83 107.654 68.4398 101.06Z" fill="#85A5A9"/>
<path d="M44.7971 62.1992L45.8896 66.2762L42.1344 67.2824L42.9537 70.3402L38.1257 71.6339L37.3063 68.5761L24.056 72.1265L22.9635 68.0495L33.0947 52.8581L37.9228 51.5644L41.042 63.2054L44.7971 62.1992ZM28.1671 66.6552L36.2139 64.4991L34.3884 57.6861L28.1671 66.6552ZM59.0387 66.3177C51.582 68.3157 47.1215 65.8312 45.4469 59.5815C43.7795 53.3587 46.4073 49.0035 53.864 47.0055C61.2939 45.0146 65.7812 47.4921 67.4414 53.6881C69.1088 59.9109 66.4686 64.3269 59.0387 66.3177ZM57.9534 62.2675C62.1914 61.132 63.5549 58.4955 62.6134 54.9818C61.679 51.4948 59.1872 49.9201 54.9492 51.0557C50.7113 52.1913 49.3335 54.7741 50.275 58.2878C51.2237 61.8284 53.7155 63.4031 57.9534 62.2675ZM91.4685 49.6937L92.5609 53.7707L88.8057 54.7769L89.6251 57.8347L84.797 59.1283L83.9777 56.0706L70.7273 59.621L69.6349 55.5439L79.766 40.3525L84.5941 39.0588L87.7133 50.6999L91.4685 49.6937ZM74.8384 54.1497L82.8852 51.9935L81.0597 45.1806L74.8384 54.1497Z" fill="white"/>
</svg>
