<svg width="292" height="346" viewBox="0 0 292 346" fill="none" xmlns="http://www.w3.org/2000/svg">
<path d="M291.659 173.441C291.659 232.887 279.493 276.597 255.999 304.221C232.085 331.846 195.586 345.833 146.08 345.833C97.8339 345.833 61.7538 331.496 37.0013 302.473C12.6682 273.45 0.501709 230.439 0.501709 173.441C0.501709 113.646 12.2487 69.936 36.5817 41.9616C60.4953 13.9872 96.9948 0 146.5 0C194.327 0 230.827 14.6866 255.16 43.71C279.493 72.7334 291.659 115.744 291.659 173.441ZM108.742 173.441C108.742 211.556 111.679 237.782 117.133 251.769C123.006 266.106 132.236 273.1 145.661 273.1C159.086 273.1 168.735 265.757 174.609 251.07C180.063 236.384 183 210.507 183 173.441C183 136.025 180.063 110.149 174.609 95.1129C168.735 80.0767 159.506 72.7334 146.08 72.7334C132.655 72.7334 123.006 80.0767 117.552 94.4136C111.679 108.75 108.742 134.976 108.742 173.441Z" fill="#85A5A9"/>
</svg>
