<svg width="31" height="29" viewBox="0 0 31 29" fill="none" xmlns="http://www.w3.org/2000/svg">
<path d="M15.8449 0.28125C12.9081 0.28125 10.0373 1.11517 7.59542 2.67754C5.15357 4.23992 3.25037 6.46058 2.12651 9.05872C1.00265 11.6569 0.708596 14.5158 1.28154 17.2739C1.85448 20.0321 3.26868 22.5656 5.3453 24.5542C7.42193 26.5427 10.0677 27.8969 12.9481 28.4455C15.8284 28.9942 18.814 28.7126 21.5273 27.6364C24.2405 26.5602 26.5596 24.7378 28.1912 22.3995C29.8228 20.0613 30.6936 17.3122 30.6936 14.5C30.6895 10.7302 29.1237 7.11589 26.3399 4.45022C23.5562 1.78455 19.7818 0.285231 15.8449 0.28125ZM15.8449 26.5312C13.3599 26.5312 10.9308 25.8256 8.86458 24.5036C6.79839 23.1816 5.188 21.3026 4.23704 19.1042C3.28608 16.9057 3.03726 14.4867 3.52206 12.1528C4.00685 9.81899 5.20348 7.67522 6.96063 5.99262C8.71778 4.31002 10.9565 3.16416 13.3937 2.69993C15.831 2.2357 18.3572 2.47396 20.6531 3.38457C22.9489 4.29519 24.9112 5.83727 26.2917 7.8158C27.6723 9.79432 28.4092 12.1204 28.4092 14.5C28.4054 17.6898 27.0805 20.7479 24.725 23.0034C22.3696 25.2589 19.176 26.5276 15.8449 26.5312ZM22.6982 18.875C22.6982 19.1651 22.5778 19.4433 22.3636 19.6484C22.1494 19.8535 21.8589 19.9688 21.556 19.9688H10.1339C9.83095 19.9688 9.54042 19.8535 9.32622 19.6484C9.11201 19.4433 8.99167 19.1651 8.99167 18.875C8.99167 18.5849 9.11201 18.3067 9.32622 18.1016C9.54042 17.8965 9.83095 17.7812 10.1339 17.7812H21.556C21.8589 17.7812 22.1494 17.8965 22.3636 18.1016C22.5778 18.3067 22.6982 18.5849 22.6982 18.875ZM8.99167 11.7656C8.99167 11.4411 9.09216 11.1239 9.28042 10.8541C9.46868 10.5843 9.73626 10.3741 10.0493 10.2499C10.3624 10.1257 10.7069 10.0932 11.0392 10.1565C11.3716 10.2198 11.6769 10.3761 11.9165 10.6055C12.1561 10.835 12.3193 11.1273 12.3854 11.4456C12.4515 11.7638 12.4176 12.0937 12.2879 12.3935C12.1582 12.6932 11.9386 12.9495 11.6568 13.1298C11.3751 13.31 11.0438 13.4062 10.705 13.4062C10.2506 13.4062 9.8148 13.2334 9.49349 12.9257C9.17218 12.618 8.99167 12.2007 8.99167 11.7656ZM22.6982 11.7656C22.6982 12.0901 22.5977 12.4073 22.4094 12.6771C22.2212 12.9469 21.9536 13.1572 21.6405 13.2814C21.3274 13.4055 20.983 13.438 20.6506 13.3747C20.3183 13.3114 20.013 13.1552 19.7734 12.9257C19.5337 12.6963 19.3706 12.4039 19.3045 12.0857C19.2383 11.7674 19.2723 11.4376 19.402 11.1378C19.5316 10.838 19.7512 10.5818 20.033 10.4015C20.3147 10.2212 20.646 10.125 20.9848 10.125C21.4392 10.125 21.875 10.2979 22.1963 10.6055C22.5177 10.9132 22.6982 11.3305 22.6982 11.7656Z" fill="#4F4D4A"/>
</svg>
