<?xml version="1.0" standalone="no"?>
<!DOCTYPE svg PUBLIC "-//W3C//DTD SVG 20010904//EN"
 "http://www.w3.org/TR/2001/REC-SVG-20010904/DTD/svg10.dtd">
<svg version="1.0" xmlns="http://www.w3.org/2000/svg"
 width="838.000000pt" height="838.000000pt" viewBox="0 0 838.000000 838.000000"
 preserveAspectRatio="xMidYMid meet">
<metadata>
Created by potrace 1.14, written by Peter Selinger 2001-2017
</metadata>
<g transform="translate(0.000000,838.000000) scale(0.100000,-0.100000)"
fill="#000000" stroke="none">
<path d="M2445 5386 c-14 -14 -28 -26 -30 -26 -2 0 -41 -37 -88 -82 -46 -46
-167 -162 -268 -259 -101 -98 -225 -217 -276 -265 -219 -213 -307 -294 -315
-294 -5 0 -6 -4 -3 -10 3 -5 2 -10 -2 -10 -9 0 -52 -41 -351 -331 -62 -60
-118 -109 -124 -109 -6 0 -9 -3 -5 -6 3 -3 -11 -20 -30 -37 -32 -29 -134 -126
-358 -342 -40 -38 -138 -133 -219 -210 -301 -287 -352 -340 -348 -357 2 -10 8
-18 13 -18 6 0 8 -4 5 -9 -3 -5 4 -11 17 -13 32 -5 2355 -1 2397 5 93 13 126
20 193 38 76 20 80 22 112 34 83 31 200 89 226 111 8 8 19 14 23 14 25 0 267
217 301 271 6 8 36 54 68 102 31 48 57 93 57 101 0 8 4 17 8 20 13 8 59 133
81 221 37 144 45 297 26 445 -4 30 -8 64 -8 75 -1 11 -4 22 -8 25 -4 3 -9 19
-12 35 -5 27 -29 107 -44 145 -4 8 -7 17 -8 20 -6 19 -61 129 -75 150 -9 14
-35 52 -56 84 -52 79 -256 286 -283 286 -5 0 -14 7 -21 15 -7 8 -24 21 -39 29
-165 87 -202 106 -209 107 -9 2 -19 5 -67 21 -22 7 -44 13 -50 14 -5 0 -17 3
-25 7 -21 7 -76 17 -132 23 -41 5 -51 2 -73 -20z"/>
<path d="M4075 5252 c-22 -2 -42 -7 -45 -12 -4 -7 -5 -888 -1 -926 1 -8 29
-11 84 -10 45 1 97 -1 115 -5 17 -4 32 -4 32 0 0 3 62 6 137 6 l138 0 0 80 0
80 -160 1 -160 1 -2 388 c-1 213 -4 390 -7 392 -6 7 -77 9 -131 5z"/>
<path d="M5083 5252 c-29 -3 -37 -12 -48 -52 -1 -3 -4 -12 -8 -20 -25 -65
-107 -295 -107 -301 0 -3 -8 -24 -17 -45 -9 -22 -17 -41 -18 -44 -1 -9 -56
-164 -66 -185 -22 -51 -58 -155 -52 -155 3 0 1 -6 -4 -12 -6 -7 -16 -31 -23
-53 -7 -22 -16 -45 -21 -50 -4 -6 -5 -15 -1 -21 8 -11 163 -16 179 -6 6 4 22
44 37 89 l27 81 50 4 c28 1 53 0 56 -5 2 -4 10 -4 18 0 7 5 62 7 122 5 l109
-3 14 -37 c8 -20 15 -39 15 -42 6 -27 29 -90 34 -92 3 0 44 -2 91 -3 83 -2
109 6 91 30 -4 5 -27 64 -50 130 -48 133 -109 302 -118 325 -3 8 -7 20 -8 25
-2 6 -21 60 -43 120 -22 61 -57 156 -78 213 -31 84 -41 102 -58 103 -12 0 -37
1 -56 2 -19 1 -49 1 -67 -1z m73 -282 c1 -6 2 -11 3 -12 2 -2 4 -14 7 -27 2
-14 9 -30 15 -38 6 -7 9 -13 6 -13 -3 0 13 -51 34 -112 22 -62 41 -117 42
-123 1 -6 -47 -11 -124 -13 l-126 -3 61 185 c40 122 64 181 71 175 6 -6 11
-14 11 -19z"/>
<path d="M4369 4205 c-308 -82 -459 -416 -317 -699 11 -21 24 -44 28 -50 105
-136 231 -205 384 -210 43 -2 100 2 127 9 26 7 50 10 53 7 3 -3 6 0 6 6 0 6
13 13 29 17 16 3 35 13 42 21 6 8 17 14 23 14 14 0 76 62 76 75 0 14 -95 115
-108 115 -6 0 -17 -6 -24 -14 -29 -28 -127 -67 -180 -70 -183 -11 -332 142
-315 323 7 74 18 121 28 121 4 0 11 9 14 20 10 33 135 148 135 125 0 -3 9 -1
20 5 62 33 203 13 276 -40 23 -16 44 -30 47 -30 10 0 107 104 107 114 -1 38
-123 117 -220 143 -38 10 -190 9 -231 -2z"/>
<path d="M5049 4185 c0 -14 -1 -216 -1 -450 0 -234 1 -436 1 -449 1 -22 6 -24
52 -28 28 -1 53 0 55 4 3 4 10 5 17 2 22 -8 197 -9 197 -1 0 5 5 5 10 2 11 -7
170 -8 176 -2 10 10 5 140 -5 150 -8 8 -60 12 -154 13 -78 1 -147 2 -153 3 -8
1 -11 110 -10 379 1 207 -3 383 -8 390 -5 8 -37 12 -92 12 -83 0 -84 0 -85
-25z"/>
<path d="M5804 4202 c-12 -8 -15 -925 -3 -937 4 -3 94 -6 200 -5 262 1 311 0
321 -6 9 -6 9 -4 11 89 1 38 -2 72 -8 75 -5 4 -83 7 -172 7 -89 0 -164 3 -167
6 -8 8 -11 157 -3 165 3 4 3 14 -2 23 -5 9 -6 23 -2 32 5 13 30 15 164 15 103
0 161 4 165 11 6 10 6 31 3 136 -1 15 -16 17 -165 17 l-164 0 -3 43 c-2 23 -2
71 1 107 l5 65 167 0 c91 0 170 3 174 7 10 11 11 131 1 146 -7 9 -71 12 -261
12 -138 0 -256 -4 -262 -8z"/>
<path d="M6855 4200 c-3 -5 -3 -10 2 -10 4 0 2 -4 -4 -8 -7 -4 -14 -17 -16
-27 -2 -11 -9 -31 -15 -45 -6 -14 -34 -88 -61 -165 -27 -77 -62 -171 -76 -210
-14 -38 -33 -92 -42 -120 -8 -27 -18 -54 -23 -60 -4 -5 -10 -22 -14 -37 -3
-15 -11 -40 -18 -55 -6 -15 -12 -35 -14 -44 -2 -8 -10 -29 -19 -45 -8 -16 -15
-35 -15 -42 0 -7 -6 -21 -12 -32 -11 -17 -10 -22 2 -30 12 -8 65 -15 91 -12 3
1 26 2 52 3 25 2 44 6 42 10 -3 3 8 42 24 85 l28 79 178 0 178 0 24 -75 c14
-41 30 -81 37 -88 15 -16 164 -18 179 -3 7 7 6 15 -3 26 -7 8 -9 15 -5 15 4 0
3 6 -3 13 -6 6 -10 14 -11 17 0 9 -128 370 -212 595 -26 72 -55 153 -64 180
-31 92 -35 95 -125 95 -43 0 -82 -4 -85 -10z m114 -306 c11 -33 21 -68 21 -77
0 -9 5 -17 12 -17 6 0 9 -2 6 -5 -3 -3 10 -49 28 -103 18 -53 29 -99 24 -102
-12 -7 -229 -5 -236 3 -4 3 -3 14 1 24 5 10 9 20 10 23 0 3 11 37 25 75 13 39
23 72 22 75 0 3 3 10 7 15 5 6 11 24 15 40 8 35 38 117 41 113 1 -2 12 -30 24
-64z"/>
<path d="M7575 4200 c-10 -16 -8 -921 2 -931 5 -5 20 -9 33 -9 118 -1 138 1
142 12 2 7 3 151 3 321 -1 172 3 306 8 304 5 -1 9 -7 9 -12 0 -6 8 -21 18 -35
9 -14 31 -50 47 -80 94 -169 168 -296 177 -302 6 -4 8 -8 4 -8 -4 0 9 -28 30
-62 20 -35 44 -76 52 -91 8 -16 22 -33 32 -38 23 -12 178 -13 189 -2 5 5 8
212 7 474 l-3 464 -84 3 c-48 2 -87 -1 -90 -7 -4 -5 -6 -150 -6 -320 0 -171
-2 -311 -5 -311 -4 0 -38 55 -76 123 -38 67 -75 133 -83 147 -8 14 -22 40 -32
58 -9 18 -22 38 -27 45 -5 7 -29 48 -52 92 -24 44 -48 89 -54 100 -6 11 -14
22 -17 25 -3 3 -11 15 -18 28 -11 20 -18 22 -106 22 -51 0 -97 -4 -100 -10z"/>
</g>
</svg>
